<svg width="1024" height="1024" fill="none" xmlns="http://www.w3.org/2000/svg"><path d="M64 302.719c0 30.933 16.64 58.88 42.667 73.813l362.666 209.28v344.96c0 15.147-8.106 29.227-21.333 36.907a42.387 42.387 0 0 1-42.667 0l-320-184.747C72.107 775.252 64 761.172 64 746.025V302.719Z" fill="url(#a)"/><path d="M448 56.322c13.227 7.68 21.333 21.76 21.333 36.907v492.587l-362.666-209.28C80.64 361.603 64 333.656 64 302.723c0-30.507 16.213-58.667 42.667-74.027L405.333 56.322a42.387 42.387 0 0 1 42.667 0Z" fill="url(#b)"/><path d="m618.667 56.322 320 184.747c13.226 7.68 21.333 21.76 21.333 36.907v443.307c0-30.934-16.64-58.88-42.667-73.814L554.667 437.976V93.229c0-15.147 8.106-29.227 21.333-36.907a42.387 42.387 0 0 1 42.667 0Z" fill="url(#c)"/><path d="m554.667 437.974 362.666 209.493C943.36 662.401 960 690.347 960 721.281c0 30.933-16.213 58.666-42.667 74.026L618.667 967.681a42.387 42.387 0 0 1-42.667 0c-13.227-7.68-21.333-21.76-21.333-36.907v-492.8Z" fill="url(#d)"/><defs><linearGradient id="a" x1="469.333" y1="586.667" x2="64" y2="586.667" gradientUnits="userSpaceOnUse"><stop stop-color="#1797D9"/><stop offset="1" stop-color="#087CBF"/></linearGradient><linearGradient id="b" x1="181.333" y1="405.333" x2="394.667" y2="53.333" gradientUnits="userSpaceOnUse"><stop stop-color="#005B9E"/><stop offset="1" stop-color="#087CBF"/></linearGradient><linearGradient id="c" x1="970.667" y1="166.975" x2="554.667" y2="166.975" gradientUnits="userSpaceOnUse"><stop offset=".021" stop-color="#26B2F3"/><stop offset="1" stop-color="#3AC6FF"/></linearGradient><linearGradient id="d" x1="570.2" y1="973.443" x2="810.667" y2="581.333" gradientUnits="userSpaceOnUse"><stop stop-color="#1EA5E6"/><stop offset="1" stop-color="#087CBF"/></linearGradient></defs></svg>